<svg xmlns="http://www.w3.org/2000/svg" viewBox="0 0 64 64" xml:space="preserve" fill-rule="evenodd" clip-rule="evenodd" stroke-linejoin="round" stroke-miterlimit="2"><path d="M32.945 43.551 10.787 21.393a2.013 2.013 0 0 1-1.462.586 2.005 2.005 0 0 1-1.706-1.037 2.016 2.016 0 0 1 .34-2.377l2.817-2.818-5.86-8.748a1.992 1.992 0 0 1-.29-1.73c.095-.318.269-.61.504-.846l1.414-1.415a1.999 1.999 0 0 1 2.577-.213l8.53 6.077 3.036-3.035c.166-.165.359-.301.572-.4a2.016 2.016 0 0 1 1.805.06 2.003 2.003 0 0 1 .45 3.168l22.628 22.628a2 2 0 0 1 2.829 2.828l4.242 4.243.01.009a1.997 1.997 0 0 1 .576 1.405 2.005 2.005 0 0 1-.586 1.414l-2.828 2.829 4.243 4.242 1.414-1.414a2 2 0 0 1 2.828 2.829l-2.828 2.828a2 2 0 0 1-2.829 0l-5.656-5.657-14.143 14.142a1.997 1.997 0 0 1-1.414.585A1.997 1.997 0 0 1 30.595 61l-.009-.009-2.828-2.828a2.049 2.049 0 0 1-.343-.458 2.016 2.016 0 0 1 .008-1.927l4.128-7.55-8.759 3.326a2.013 2.013 0 0 1-2.08-.436l-1.44-1.44a2 2 0 0 1 1.103-3.39 2.016 2.016 0 0 1 1.726.561l.509.51 10.335-3.808Zm16.026-3.773-2.829-2.828-8.287 8.287L31.653 56.4l.347.348 16.97-16.971Zm-21.213-7.071a2 2 0 0 1 2.828 2.828L32 36.95a2 2 0 0 1 2.829 2.828l1.414 1.414 7.07-7.07-1.413-1.415-2.829 2.828a1.997 1.997 0 0 1-1.414.585 1.997 1.997 0 0 1-1.405-.575l-.01-.01-19.798-19.799-1.391 1.391-.045.045-1.393 1.393 1.415 1.414a2 2 0 0 1 2.828 2.828l1.414 1.415a2 2 0 0 1 2.829 2.828l1.414 1.414a2 2 0 0 1 2.828 2.829l1.415 1.414ZM11.612 9.49l2.259 3.163.903-.904-3.162-2.26Zm27.46 20.389L20.686 11.494l-1.393 1.393-.022.02 18.385 18.386 1.414-1.414Z" fill="#8d2a4f" class="fill-000000"></path></svg>