<svg xmlns="http://www.w3.org/2000/svg" viewBox="0 0 64 64" xml:space="preserve"><g fill="#00aeb3" class="fill-424242"><path d="M57 32c1.1 0 2-.9 2-2V8c0-1.1-.9-2-2-2s-2 .9-2 2v22c0 1.1.9 2 2 2zM42.78 28.53c.19.439.3.92.32 1.399 0 .03-.01.051-.01.07H53V8H34.28l8.5 20.53zM31.17 37h.02c.21 0 .41.18.61.31l4.42-4.44-.05-.05a4.133 4.133 0 0 1-.77-1.194l-8.52-20.563L9.85 28.091l21.24 8.83.08.079zM7.009 58h22.102c.211 0 .412-.03.593-.09C30.488 57.65 31 56.89 31 56c0-1.1-1.035-2-2.14-2H7.009A2.016 2.016 0 0 0 5 56c0 1.1.904 2 2.009 2zM28.14 44.32l-.04-.02-.05-.01L7 35.56v16.47c.16-.02.33-.03.5-.03H29v-7.48c-.07-.01-.15-.01-.22-.02-.27-.04-.49-.12-.64-.18zM31.851 39.83c.199.49.199 1.04 0 1.53-.387.909-1.36 1.399-2.284 1.17-.109-.011-.208-.05-.317-.09L7.786 33.48l-.556-.23c-.487-.2-.874-.59-1.073-1.08a1.945 1.945 0 0 1 0-1.53 1.98 1.98 0 0 1 2.593-1.08l.139.061 21.861 9.11.02.01c.485.209.873.599 1.081 1.089zM37.63 31.357a1.9 1.9 0 0 1-.38-.587L28.41 9.593l-.35-.845c-.2-.485-.2-1.033 0-1.519.2-.487.59-.875 1.08-1.073 1.02-.428 2.19.06 2.62 1.073l.48 1.151 8.7 20.871c.09.208.15.446.16.675.01.288-.04.576-.16.844-.2.487-.59.875-1.08 1.073-.8.339-1.68.11-2.23-.486z"></path></g></svg>