<svg xmlns="http://www.w3.org/2000/svg" id="Layer_2" viewBox="0 0 472.64 455.64"><defs><style>.cls-1{fill:#d7a650;fill-rule:evenodd;stroke-width:0px;}</style></defs><g id="Layer_1-2"><path class="cls-1" d="m220.42,157.76h-.05c-26.08,0-47.25,21.17-47.25,47.25s21.17,47.25,47.25,47.25h31.5c8.69,0,15.75,7.06,15.75,15.75s-7.06,15.75-15.75,15.75h-47.25c-8.69,0-15.75,7.06-15.75,15.75s7.06,15.75,15.75,15.75h15.8v15.75c0,8.69,7.06,15.75,15.75,15.75s15.75-7.06,15.75-15.75v-15.75c26.05-.03,47.2-21.18,47.2-47.25s-21.17-47.25-47.25-47.25h-31.5c-8.69,0-15.75-7.06-15.75-15.75s7.06-15.75,15.75-15.75h47.25c8.69,0,15.75-7.06,15.75-15.75s-7.06-15.75-15.75-15.75h-15.7v-15.75c0-8.69-7.06-15.75-15.75-15.75s-15.75,7.06-15.75,15.75v15.75h0Z"></path><path class="cls-1" d="m386.44,408.78c3.48-1.29,6.36-3.76,8.19-6.93,1.64-2.49,2.57-5.42,2.58-8.47.02-5.2-2.57-10.03-6.88-12.9l-70.01-46.46c-7.13-4.74-21.18-3.02-21.18,4.33v39.86c-107.02.02-243.9.02-243.9.02-.35,0-.71.02-1.06.03h-6.93c-4.17,0-8.19-1.65-11.14-4.61-2.96-2.95-4.61-6.96-4.61-11.14V79.01c0-8.69-7.06-15.75-15.75-15.75S0,70.31,0,79.01v283.5c0,12.54,4.98,24.55,13.84,33.41,8.85,8.87,20.87,13.84,33.41,13.84l251.31.76v38.18c0,7.34,13.97,9.04,21.15,4.27l66.73-44.18h0Z"></path><path class="cls-1" d="m86.2,46.86c-3.46,1.29-6.36,3.76-8.19,6.93-1.64,2.49-2.55,5.42-2.57,8.47-.03,5.2,2.55,10.03,6.88,12.92l69.99,46.45c7.13,4.74,21.2,3.04,21.2-4.33v-39.86c107.02-.02,243.89-.02,243.89-.02.36,0,.71,0,1.06-.03h6.93c4.19,0,8.19,1.67,11.14,4.61,2.96,2.96,4.61,6.96,4.61,11.14v283.5c0,8.69,7.06,15.75,15.75,15.75s15.75-7.06,15.75-15.75V93.13c0-12.52-4.98-24.55-13.83-33.41-8.87-8.87-20.88-13.84-33.42-13.84l-251.31-.76V6.95c0-7.34-13.95-9.04-21.15-4.27l-66.73,44.18h0Z"></path></g></svg>