<svg xmlns="http://www.w3.org/2000/svg" id="Layer_2" viewBox="0 0 391.42 456.75"><defs><style>.cls-1{fill:#d7a650;fill-rule:evenodd;stroke-width:0px;}</style></defs><g id="Layer_1-2"><g id="Expanded"><path class="cls-1" d="m0,23.62v409.5c0,13.05,10.58,23.62,23.62,23.62h344.17c13.05,0,23.62-10.58,23.62-23.62V23.62c0-13.05-10.58-23.62-23.62-23.62H23.62C10.58,0,0,10.58,0,23.62Zm375.67,393.75v15.75c0,4.35-3.53,7.88-7.88,7.88H23.62c-4.35,0-7.88-3.53-7.88-7.88v-15.75h359.92Zm-66.09-118.12h20c4.35,0,7.88-3.53,7.88-7.88v-47.25c0-4.35-3.53-7.88-7.88-7.88h-20c-13.8-49.92-59.58-86.62-113.87-86.62-65.2,0-118.12,52.93-118.12,118.12s52.93,118.12,118.12,118.12c54.29,0,100.07-36.71,113.87-86.62Zm-41.16,0c-12.19,28.07-40.17,47.73-72.71,47.73-43.73,0-79.23-35.5-79.23-79.23s35.5-79.23,79.23-79.23c32.54,0,60.52,19.66,72.71,47.73h24.72c-13.29-41.11-51.91-70.88-97.43-70.88-56.5,0-102.38,45.87-102.38,102.38s45.87,102.38,102.38,102.38c45.52,0,84.14-29.77,97.43-70.88h-24.72Zm-17.25-62.4c-10.86-19.43-31.63-32.58-55.46-32.58-35.04,0-63.48,28.44-63.48,63.48s28.44,63.48,63.48,63.48c23.82,0,44.6-13.15,55.46-32.58-14.44-2.86-25.36-15.62-25.36-30.9s10.91-28.04,25.36-30.9Zm70.54,15.15h-64.4c-8.69,0-15.75,7.06-15.75,15.75s7.06,15.75,15.75,15.75h64.4v-31.5ZM164.21,39.38c0-4.35-3.53-7.88-7.88-7.88H38.21c-4.35,0-7.88,3.53-7.88,7.88v55.12c0,4.35,3.53,7.88,7.88,7.88h118.12c4.35,0,7.88-3.53,7.88-7.88v-55.12Zm169.31,3.94c-15.21,0-27.56,12.35-27.56,27.56s12.35,27.56,27.56,27.56,27.56-12.35,27.56-27.56-12.35-27.56-27.56-27.56Zm-70.88,0c-15.21,0-27.56,12.35-27.56,27.56s12.35,27.56,27.56,27.56,27.56-12.35,27.56-27.56-12.35-27.56-27.56-27.56Zm-114.19,3.94v39.38H46.08v-39.38h102.38Zm185.06,11.81c6.52,0,11.81,5.29,11.81,11.81s-5.29,11.81-11.81,11.81-11.81-5.29-11.81-11.81,5.29-11.81,11.81-11.81Zm-70.88,0c6.52,0,11.81,5.29,11.81,11.81s-5.29,11.81-11.81,11.81-11.81-5.29-11.81-11.81,5.29-11.81,11.81-11.81Z"></path></g></g></svg>