<svg xmlns="http://www.w3.org/2000/svg" width="67" height="48" viewBox="0 0 67 48" fill="none"><path id="quote-left-sharp-solid" d="M0.160157 17.719C0.1595 15.3919 0.617367 13.0875 1.5076 10.9375C2.39783 8.78739 3.70297 6.8338 5.34847 5.18831C6.99396 3.54282 8.94755 2.23767 11.0976 1.34744C13.2477 0.457213 15.5521 -0.000656234 17.8792 7.05918e-07H23.7852V9.45H17.8792C15.6865 9.45132 13.584 10.3229 12.0336 11.8734C10.4831 13.4239 9.61148 15.5263 9.61016 17.719V18.9H28.5102V47.25H0.160157V17.719ZM37.9602 17.719C37.9595 15.3919 38.4174 13.0875 39.3076 10.9375C40.1978 8.78739 41.503 6.8338 43.1485 5.18831C44.794 3.54282 46.7475 2.23767 48.8976 1.34744C51.0477 0.457213 53.3521 -0.000656234 55.6792 7.05918e-07H61.5852V9.45H55.6792C53.4865 9.45132 51.384 10.3229 49.8336 11.8734C48.2831 13.4239 47.4115 15.5263 47.4102 17.719V18.9H66.3102V47.25H37.9602V17.719Z" fill="url(#paint0_linear_68_340)"></path><defs><linearGradient id="paint0_linear_68_340" x1="0.160156" y1="18.6165" x2="63.4795" y2="38.2075" gradientUnits="userSpaceOnUse"><stop stop-color="white"></stop><stop offset="1" stop-color="white"></stop></linearGradient></defs></svg>