<svg xmlns="http://www.w3.org/2000/svg" width="42.762" height="42.762" viewBox="0 0 42.762 42.762"><defs><style>.a{fill:#d7a650;}</style></defs><path class="a" d="M15.092,15.092a1.326,1.326,0,0,1,1.888,0l4.4,4.4,4.4-4.4a1.335,1.335,0,1,1,1.888,1.888l-4.4,4.4,4.4,4.4a1.335,1.335,0,1,1-1.888,1.888l-4.4-4.4-4.4,4.4a1.335,1.335,0,1,1-1.888-1.888l4.4-4.4-4.4-4.4A1.326,1.326,0,0,1,15.092,15.092Zm27.67,6.289A21.381,21.381,0,1,1,21.381,0,21.379,21.379,0,0,1,42.762,21.381ZM21.381,2.673A18.708,18.708,0,1,0,40.089,21.381,18.71,18.71,0,0,0,21.381,2.673Z"/></svg>