<svg xmlns="http://www.w3.org/2000/svg" width="21.809" height="22.512" viewBox="0 0 21.809 22.512"><defs><style>.a{fill:#fff;}</style></defs><path class="a" d="M0,0H9.849V7.035h7.035v6.332H4.925v9.146H0ZM16.884,5.628H11.256V0ZM7.739,15.477H9.146a2.462,2.462,0,0,1,0,4.925h-.7v2.111H7.035V15.477Zm1.407,3.518a1.055,1.055,0,0,0,0-2.111h-.7v2.111Zm4.221-3.518h1.407a2.111,2.111,0,0,1,2.111,2.111V20.4a2.111,2.111,0,0,1-2.111,2.111H12.663V15.477Zm1.407,5.628a.706.706,0,0,0,.7-.7V17.588a.706.706,0,0,0-.7-.7h-.7v4.221Zm3.518-5.628h3.518v1.407H19.7v1.407h2.111V19.7H19.7v2.814H18.291V15.477Z"></path></svg>