<svg width="16" height="9" viewBox="0 0 16 9" fill="none" xmlns="http://www.w3.org/2000/svg">
<path d="M7.13558 8.27701C7.40766 8.54881 7.7765 8.70148 8.16108 8.70148C8.54566 8.70148 8.91451 8.54881 9.18658 8.27701L14.9866 2.47701C15.1891 2.27377 15.3269 2.01508 15.3826 1.7336C15.4382 1.45211 15.4092 1.16045 15.2992 0.895432C15.1892 0.630414 15.0032 0.403919 14.7646 0.244553C14.526 0.0851865 14.2455 8.59923e-05 13.9586 0L2.36758 0.0039978C2.08065 0.0040838 1.80017 0.0891843 1.56156 0.24855C1.32295 0.407917 1.13691 0.634412 1.02693 0.899429C0.916938 1.16445 0.887937 1.45611 0.943583 1.73759C0.999229 2.01908 1.13703 2.27777 1.33958 2.481L7.13958 8.28101L7.13558 8.27701Z" fill="#797979"/>
</svg>
