<svg xmlns="http://www.w3.org/2000/svg" width="30.582" height="30.582" viewBox="0 0 30.582 30.582"><defs><style>.a{fill:#dfa43c;}</style></defs><path class="a" d="M15.291,0a1.43,1.43,0,0,1,1.434,1.434V2.467A12.915,12.915,0,0,1,28.115,13.857h1.033a1.434,1.434,0,0,1,0,2.867H28.115A12.915,12.915,0,0,1,16.725,28.115v1.033a1.434,1.434,0,0,1-2.867,0V28.115A12.915,12.915,0,0,1,2.467,16.725H1.434a1.434,1.434,0,0,1,0-2.867H2.467A12.915,12.915,0,0,1,13.857,2.467V1.434A1.43,1.43,0,0,1,15.291,0ZM5.358,16.725a10.035,10.035,0,0,0,8.5,8.5v-1.81a1.434,1.434,0,0,1,2.867,0v1.81a10.035,10.035,0,0,0,8.5-8.5h-1.81a1.434,1.434,0,0,1,0-2.867h1.81a10.035,10.035,0,0,0-8.5-8.5v1.81a1.434,1.434,0,0,1-2.867,0V5.358a10.035,10.035,0,0,0-8.5,8.5h1.81a1.434,1.434,0,0,1,0,2.867Zm9.933-3.345a1.911,1.911,0,1,1-1.911,1.911A1.911,1.911,0,0,1,15.291,13.38Z"/></svg>