<svg width="32" height="31" viewBox="0 0 32 31" fill="none" xmlns="http://www.w3.org/2000/svg">
<path d="M15.9939 0.342779C16.1823 0.342251 16.369 0.378982 16.5433 0.450861C16.7175 0.522739 16.8758 0.628346 17.009 0.761611C17.1423 0.894875 17.2479 1.05317 17.3198 1.22739C17.3917 1.40161 17.4284 1.58832 17.4279 1.77678V2.80978C20.336 3.13699 23.0468 4.44217 25.1161 6.51151C27.1855 8.58085 28.4906 11.2916 28.8179 14.1998H29.8509C30.2245 14.2096 30.5795 14.365 30.8403 14.6328C31.1011 14.9005 31.247 15.2595 31.247 15.6333C31.247 16.007 31.1011 16.366 30.8403 16.6338C30.5795 16.9016 30.2245 17.0569 29.8509 17.0668H28.8179C28.4909 19.9751 27.1858 22.6861 25.1164 24.7557C23.0471 26.8252 20.3361 28.1305 17.4279 28.4578V29.4908C17.418 29.8644 17.2626 30.2194 16.9949 30.4802C16.7271 30.741 16.3681 30.8869 15.9944 30.8869C15.6206 30.8869 15.2616 30.741 14.9938 30.4802C14.7261 30.2194 14.5707 29.8644 14.5609 29.4908V28.4578C11.6525 28.1308 8.94152 26.8257 6.87198 24.7563C4.80244 22.687 3.49711 19.9761 3.16986 17.0678H2.13686C1.76322 17.0579 1.40821 16.9026 1.14743 16.6348C0.886653 16.367 0.740723 16.008 0.740723 15.6343C0.740723 15.2605 0.886653 14.9015 1.14743 14.6338C1.40821 14.366 1.76322 14.2106 2.13686 14.2008H3.16986C3.49685 11.2925 4.80195 8.58144 6.87131 6.5119C8.94066 4.44236 11.6516 3.13703 14.5599 2.80978V1.77678C14.5593 1.58832 14.5961 1.40161 14.6679 1.22739C14.7398 1.05317 14.8454 0.894875 14.9787 0.761611C15.112 0.628346 15.2702 0.522739 15.4445 0.450861C15.6187 0.378982 15.8054 0.342251 15.9939 0.342779ZM6.06086 17.0678C6.37011 19.2123 7.36518 21.1992 8.8973 22.7313C10.4294 24.2635 12.4163 25.2585 14.5609 25.5678V23.7578C14.5707 23.3841 14.7261 23.0291 14.9938 22.7684C15.2616 22.5076 15.6206 22.3616 15.9944 22.3616C16.3681 22.3616 16.7271 22.5076 16.9949 22.7684C17.2626 23.0291 17.418 23.3841 17.4279 23.7578V25.5678C19.5724 25.2585 21.5593 24.2635 23.0914 22.7313C24.6235 21.1992 25.6186 19.2123 25.9279 17.0678H24.1179C23.7442 17.0579 23.3892 16.9026 23.1284 16.6348C22.8677 16.367 22.7217 16.008 22.7217 15.6343C22.7217 15.2605 22.8677 14.9015 23.1284 14.6338C23.3892 14.366 23.7442 14.2106 24.1179 14.2008H25.9279C25.6186 12.0562 24.6235 10.0693 23.0914 8.53723C21.5593 7.0051 19.5724 6.01003 17.4279 5.70078V7.51078C17.418 7.88441 17.2626 8.23943 16.9949 8.50021C16.7271 8.76098 16.3681 8.90691 15.9944 8.90691C15.6206 8.90691 15.2616 8.76098 14.9938 8.50021C14.7261 8.23943 14.5707 7.88441 14.5609 7.51078V5.70078C12.4163 6.01003 10.4294 7.0051 8.8973 8.53723C7.36518 10.0693 6.37011 12.0562 6.06086 14.2008H7.87086C8.24449 14.2106 8.59951 14.366 8.86028 14.6338C9.12106 14.9015 9.26699 15.2605 9.26699 15.6343C9.26699 16.008 9.12106 16.367 8.86028 16.6348C8.59951 16.9026 8.24449 17.0579 7.87086 17.0678H6.06086ZM15.9939 13.7228C16.3718 13.7228 16.7413 13.8349 17.0556 14.0448C17.3698 14.2548 17.6148 14.5533 17.7594 14.9025C17.904 15.2517 17.9419 15.6359 17.8681 16.0066C17.7944 16.3773 17.6124 16.7178 17.3451 16.9851C17.0779 17.2523 16.7374 17.4343 16.3667 17.5081C15.996 17.5818 15.6117 17.544 15.2626 17.3993C14.9134 17.2547 14.6149 17.0097 14.4049 16.6955C14.1949 16.3812 14.0829 16.0117 14.0829 15.6338C14.0829 15.127 14.2842 14.6409 14.6426 14.2825C15.001 13.9241 15.487 13.7228 15.9939 13.7228Z" fill="#C28C2C"/>
</svg>
