<svg xmlns="http://www.w3.org/2000/svg" width="68.721" height="68.722" viewBox="0 0 68.721 68.722"><defs><style>.a{fill:#dfa43c;}</style></defs><path class="a" d="M34.361,68.722A34.361,34.361,0,1,0,0,34.361,34.358,34.358,0,0,0,34.361,68.722Zm16.952-16-3.839,1.919a14.96,14.96,0,0,0-13.113-7.4,14.939,14.939,0,0,0-13.113,7.409l-3.839-1.919a19.2,19.2,0,0,1,16.952-9.785A19.222,19.222,0,0,1,51.313,52.722Zm-23.341-24.8a4.3,4.3,0,1,1-4.3-4.3A4.29,4.29,0,0,1,27.972,27.918Zm17.18,4.3a4.3,4.3,0,1,1,4.3-4.3A4.29,4.29,0,0,1,45.152,32.213Z"/></svg>