<svg width="12" height="14" viewBox="0 0 12 14" fill="none" xmlns="http://www.w3.org/2000/svg">
<g clip-path="url(#clip0_204_199)">
<path d="M4.28571 0H7.71429C8.65982 0 9.42857 0.784766 9.42857 1.75V7H2.57143V1.75C2.57143 0.784766 3.34018 0 4.28571 0ZM1.71429 4.375V6.125C1.71429 6.60898 1.33125 7 0.857143 7C0.383036 7 0 6.60898 0 6.125V4.375C0 3.89102 0.383036 3.5 0.857143 3.5C1.33125 3.5 1.71429 3.89102 1.71429 4.375ZM12 4.375V6.125C12 6.60898 11.617 7 11.1429 7C10.6687 7 10.2857 6.60898 10.2857 6.125V4.375C10.2857 3.89102 10.6687 3.5 11.1429 3.5C11.617 3.5 12 3.89102 12 4.375ZM1.37679 8.35898C1.52143 8.06094 1.81875 7.875 2.14286 7.875H9.85714C10.1813 7.875 10.4786 8.06094 10.6232 8.35898L11.0518 9.23398C11.1857 9.50469 11.1696 9.82734 11.0143 10.0844C10.8589 10.3414 10.583 10.5 10.2857 10.5H6.85714V12.25H7.71429C8.18839 12.25 8.57143 12.641 8.57143 13.125C8.57143 13.609 8.18839 14 7.71429 14H6H4.28571C3.81161 14 3.42857 13.609 3.42857 13.125C3.42857 12.641 3.81161 12.25 4.28571 12.25H5.14286V10.5H1.71429C1.41696 10.5 1.14107 10.3441 0.985714 10.0844C0.830357 9.82461 0.814286 9.50469 0.948214 9.23398L1.37679 8.35898Z" fill="#8D2A4F"/>
</g>
<defs>
<clipPath id="clip0_204_199">
<rect width="12" height="14" fill="white"/>
</clipPath>
</defs>
</svg>
