<svg width="33" height="44" viewBox="0 0 33 44" fill="none" xmlns="http://www.w3.org/2000/svg">
<path d="M18.5367 43.0113C22.9453 37.4798 33 24.0732 33 16.5428C33 7.4098 25.6094 0 16.5 0C7.39062 0 0 7.4098 0 16.5428C0 24.0732 10.0547 37.4798 14.4633 43.0113C15.5203 44.3296 17.4797 44.3296 18.5367 43.0113ZM16.5 11.0285C17.9587 11.0285 19.3576 11.6095 20.3891 12.6436C21.4205 13.6778 22 15.0803 22 16.5428C22 18.0053 21.4205 19.4079 20.3891 20.442C19.3576 21.4761 17.9587 22.0571 16.5 22.0571C15.0413 22.0571 13.6424 21.4761 12.6109 20.442C11.5795 19.4079 11 18.0053 11 16.5428C11 15.0803 11.5795 13.6778 12.6109 12.6436C13.6424 11.6095 15.0413 11.0285 16.5 11.0285Z" fill="#C28C2C"/>
</svg>
