<svg width="21" height="21" viewBox="0 0 21 21" fill="none" xmlns="http://www.w3.org/2000/svg">
<path d="M16.4222 8.59476C16.4247 10.2844 15.8884 11.9308 14.8912 13.2948L19.7382 18.1448C19.9681 18.3747 20.0973 18.6866 20.0973 19.0118C20.0973 19.3369 19.9681 19.6488 19.7382 19.8788C19.6243 19.9926 19.4891 20.0829 19.3404 20.1445C19.1916 20.2062 19.0322 20.2379 18.8712 20.2379C18.546 20.2379 18.2341 20.1087 18.0042 19.8788L13.1572 15.0288C11.7121 16.0848 9.95351 16.6233 8.16495 16.5574C6.3764 16.4915 4.66217 15.8251 3.29877 14.6656C1.93536 13.5061 1.00226 11.9212 0.649961 10.1664C0.297663 8.41165 0.546709 6.58938 1.35693 4.9935C2.16715 3.39763 3.49131 2.12119 5.11584 1.37006C6.74036 0.618937 8.57054 0.436913 10.3112 0.853351C12.0518 1.26979 13.6015 2.26041 14.7102 3.66544C15.8188 5.07047 16.4219 6.80799 16.4222 8.59776V8.59476ZM8.45915 14.1068C9.54956 14.1068 10.6155 13.7834 11.5221 13.1776C12.4287 12.5718 13.1354 11.7107 13.5526 10.7033C13.9698 9.69583 14.0789 8.5873 13.8661 7.51786C13.6533 6.44841 13.1282 5.46609 12.3571 4.69512C11.586 3.92416 10.6036 3.39917 9.53407 3.18656C8.46459 2.97396 7.35608 3.08328 6.34872 3.5007C5.34137 3.91811 4.48043 4.62489 3.87477 5.53163C3.26912 6.43836 2.94595 7.50434 2.94615 8.59476C2.94642 10.0567 3.52737 11.4587 4.56122 12.4924C5.59508 13.5261 6.99718 14.1068 8.45915 14.1068Z" fill="#16577B"/>
</svg>
