<svg width="41" height="55" viewBox="0 0 41 55" fill="none" xmlns="http://www.w3.org/2000/svg">
<path d="M23.0305 53.7641C28.5078 46.8498 41 30.0915 41 20.6785C41 9.26225 31.8177 0 20.5 0C9.18229 0 0 9.26225 0 20.6785C0 30.0915 12.4922 46.8498 17.9695 53.7641C19.2828 55.412 21.7172 55.412 23.0305 53.7641ZM20.5 13.7857C22.3123 13.7857 24.0504 14.5119 25.3319 15.8045C26.6134 17.0972 27.3333 18.8504 27.3333 20.6785C27.3333 22.5066 26.6134 24.2598 25.3319 25.5525C24.0504 26.8451 22.3123 27.5714 20.5 27.5714C18.6877 27.5714 16.9496 26.8451 15.6681 25.5525C14.3866 24.2598 13.6667 22.5066 13.6667 20.6785C13.6667 18.8504 14.3866 17.0972 15.6681 15.8045C16.9496 14.5119 18.6877 13.7857 20.5 13.7857Z" fill="#C28C2C"/>
</svg>
