<svg xmlns="http://www.w3.org/2000/svg" xmlns:xlink="http://www.w3.org/1999/xlink" width="162.984" height="162.984" viewBox="0 0 162.984 162.984"><defs><style>.a,.c,.d,.e{fill:#fff;}.b{clip-path:url(#a);}.c,.d{font-size:14px;}.c,.e{font-family:ProximaNova-Bold, Proxima Nova;font-weight:700;}.d{font-family:ProximaNova-Medium, Proxima Nova;font-weight:500;}.e{font-size:28px;}</style><clipPath id="a"><path class="a" d="M81.492,162.984A81.492,81.492,0,1,0,0,81.492,81.486,81.486,0,0,0,81.492,162.984ZM32.342,99.955c-1.178-4.361,2.387-8.277,6.908-8.277h84.484c4.52,0,8.086,3.915,6.908,8.277a50.937,50.937,0,0,1-98.3,0ZM69.268,67.74h0l-.064-.064a3.081,3.081,0,0,1-.223-.286c-.191-.255-.509-.637-.891-1.082a38.488,38.488,0,0,0-3.247-3.279c-2.8-2.483-5.985-4.457-8.818-4.457s-6.016,1.974-8.818,4.457a38.484,38.484,0,0,0-3.247,3.279c-.382.446-.7.828-.891,1.082-.1.127-.191.223-.223.286l-.064.064h0a2.522,2.522,0,0,1-2.833.891A2.574,2.574,0,0,1,38.2,66.212a26.54,26.54,0,0,1,5.284-15.534c3.12-4.138,7.608-7.385,12.542-7.385s9.422,3.247,12.542,7.385a26.54,26.54,0,0,1,5.284,15.534A2.562,2.562,0,0,1,72.1,68.632a2.492,2.492,0,0,1-2.833-.891h0Zm50.932,0h0l-.064-.064a3.084,3.084,0,0,1-.223-.286c-.191-.255-.509-.637-.891-1.082a38.485,38.485,0,0,0-3.247-3.279c-2.8-2.483-5.985-4.457-8.818-4.457s-6.016,1.974-8.818,4.457a38.484,38.484,0,0,0-3.247,3.279c-.382.446-.7.828-.891,1.082-.1.127-.191.223-.223.286l-.064.064h0a2.522,2.522,0,0,1-2.833.891,2.574,2.574,0,0,1-1.751-2.419,26.54,26.54,0,0,1,5.284-15.534c3.12-4.138,7.608-7.385,12.542-7.385s9.422,3.247,12.542,7.385a26.54,26.54,0,0,1,5.284,15.534,2.562,2.562,0,0,1-1.751,2.419,2.492,2.492,0,0,1-2.833-.891h0Z" transform="translate(-10097.221 11302.279)"/></clipPath></defs><g class="b" transform="translate(10097.221 -11302.279)"><g transform="translate(-10073.24 11322.315)"><rect class="a" width="713.999" height="460.577" rx="10" transform="translate(0)"/><path class="a" d="M17.331,110.673a1.333,1.333,0,1,1-1.885,1.885l-6.561-6.61-6.608,6.608a1.333,1.333,0,1,1-1.885-1.885L7,104.066.39,97.408a1.333,1.333,0,0,1,1.885-1.885l6.61,6.66,6.608-6.608a1.333,1.333,0,0,1,1.885,1.885l-6.61,6.606Z" transform="translate(664.103 -68.571)"/><g transform="translate(266.191 326.793)"><rect class="a" width="181.064" height="51.884" rx="5" transform="translate(0 0)"/><text class="c" transform="translate(41.971 30.185)"><tspan x="0" y="0">Get My Results</tspan></text></g><text class="d" transform="translate(341.2 416.641)"><tspan x="0" y="0">Back</tspan></text><text class="e" transform="translate(98.394 79.089)"><tspan x="173.585" y="26">Excellent Match</tspan></text></g></g></svg>