<svg xmlns="http://www.w3.org/2000/svg" xmlns:xlink="http://www.w3.org/1999/xlink" width="174.89" height="174.89" viewBox="0 0 174.89 174.89"><defs><style>.a{fill:#52a9b0;}.b{clip-path:url(#a);}.c{fill:#fff;}</style><clipPath id="a"><path class="a" d="M87.445,174.89A87.445,87.445,0,1,0,0,87.445,87.438,87.438,0,0,0,87.445,174.89ZM56.053,111.185a41.2,41.2,0,0,0,62.783,0,5.472,5.472,0,1,1,8.266,7.173,52.168,52.168,0,0,1-79.315,0,5.472,5.472,0,0,1,8.266-7.173ZM74.328,78.154h0l-.068-.068a3.306,3.306,0,0,1-.239-.307c-.2-.273-.547-.683-.956-1.161A41.3,41.3,0,0,0,69.58,73.1c-3.006-2.664-6.422-4.782-9.462-4.782s-6.456,2.118-9.462,4.782a41.3,41.3,0,0,0-3.484,3.518c-.41.478-.751.888-.956,1.161-.1.137-.2.239-.239.307l-.068.068h0a2.706,2.706,0,0,1-3.04.956,2.762,2.762,0,0,1-1.879-2.6,28.478,28.478,0,0,1,5.67-16.669c3.347-4.441,8.164-7.925,13.458-7.925S70.229,55.4,73.577,59.845a28.479,28.479,0,0,1,5.67,16.669,2.749,2.749,0,0,1-1.879,2.6,2.675,2.675,0,0,1-3.04-.956Zm54.653,0h0l-.068-.068a3.307,3.307,0,0,1-.239-.307c-.2-.273-.547-.683-.956-1.161a41.3,41.3,0,0,0-3.484-3.518c-3.006-2.664-6.422-4.782-9.462-4.782s-6.456,2.118-9.462,4.782a41.3,41.3,0,0,0-3.484,3.518c-.41.478-.751.888-.956,1.161-.1.137-.2.239-.239.307l-.068.068h0a2.706,2.706,0,0,1-3.04.956,2.762,2.762,0,0,1-1.879-2.6,28.479,28.479,0,0,1,5.67-16.669c3.348-4.441,8.164-7.925,13.458-7.925s10.111,3.484,13.458,7.925a28.478,28.478,0,0,1,5.67,16.669,2.749,2.749,0,0,1-1.879,2.6,2.675,2.675,0,0,1-3.04-.956h0Z" transform="translate(-7939.722 11190.47)"/></clipPath></defs><g class="b" transform="translate(7939.722 -11190.47)"><path class="c" d="M7.7,0H682.9a7.7,7.7,0,0,1,7.7,7.7V299.953a7.7,7.7,0,0,1-7.7,7.7H7.7a7.7,7.7,0,0,1-7.7-7.7V7.7A7.7,7.7,0,0,1,7.7,0Z" transform="translate(-7912.9 11217.402)"/></g></svg>