<svg width="20" height="19" viewBox="0 0 20 19" fill="none" xmlns="http://www.w3.org/2000/svg">
<path d="M0 15.8333C0 16.3598 0.417969 16.7833 0.9375 16.7833H3.26953C3.66797 18.0698 4.85156 19 6.25 19C7.64844 19 8.83203 18.0698 9.23047 16.7833H19.0625C19.582 16.7833 20 16.3598 20 15.8333C20 15.3069 19.582 14.8833 19.0625 14.8833H9.23047C8.83203 13.5969 7.64844 12.6667 6.25 12.6667C4.85156 12.6667 3.66797 13.5969 3.26953 14.8833H0.9375C0.417969 14.8833 0 15.3069 0 15.8333ZM5 15.8333C5 15.4974 5.1317 15.1752 5.36612 14.9377C5.60054 14.7001 5.91848 14.5667 6.25 14.5667C6.58152 14.5667 6.89946 14.7001 7.13388 14.9377C7.3683 15.1752 7.5 15.4974 7.5 15.8333C7.5 16.1693 7.3683 16.4915 7.13388 16.729C6.89946 16.9665 6.58152 17.1 6.25 17.1C5.91848 17.1 5.60054 16.9665 5.36612 16.729C5.1317 16.4915 5 16.1693 5 15.8333ZM12.5 9.5C12.5 9.16406 12.6317 8.84188 12.8661 8.60433C13.1005 8.36679 13.4185 8.23333 13.75 8.23333C14.0815 8.23333 14.3995 8.36679 14.6339 8.60433C14.8683 8.84188 15 9.16406 15 9.5C15 9.83594 14.8683 10.1581 14.6339 10.3957C14.3995 10.6332 14.0815 10.7667 13.75 10.7667C13.4185 10.7667 13.1005 10.6332 12.8661 10.3957C12.6317 10.1581 12.5 9.83594 12.5 9.5ZM13.75 6.33333C12.3516 6.33333 11.168 7.26354 10.7695 8.55H0.9375C0.417969 8.55 0 8.97354 0 9.5C0 10.0265 0.417969 10.45 0.9375 10.45H10.7695C11.168 11.7365 12.3516 12.6667 13.75 12.6667C15.1484 12.6667 16.332 11.7365 16.7305 10.45H19.0625C19.582 10.45 20 10.0265 20 9.5C20 8.97354 19.582 8.55 19.0625 8.55H16.7305C16.332 7.26354 15.1484 6.33333 13.75 6.33333ZM7.5 4.43333C7.16848 4.43333 6.85054 4.29988 6.61612 4.06234C6.3817 3.82479 6.25 3.50261 6.25 3.16667C6.25 2.83073 6.3817 2.50854 6.61612 2.271C6.85054 2.03345 7.16848 1.9 7.5 1.9C7.83152 1.9 8.14946 2.03345 8.38388 2.271C8.6183 2.50854 8.75 2.83073 8.75 3.16667C8.75 3.50261 8.6183 3.82479 8.38388 4.06234C8.14946 4.29988 7.83152 4.43333 7.5 4.43333ZM10.4805 2.21667C10.082 0.930208 8.89844 0 7.5 0C6.10156 0 4.91797 0.930208 4.51953 2.21667H0.9375C0.417969 2.21667 0 2.64021 0 3.16667C0 3.69313 0.417969 4.11667 0.9375 4.11667H4.51953C4.91797 5.40312 6.10156 6.33333 7.5 6.33333C8.89844 6.33333 10.082 5.40312 10.4805 4.11667H19.0625C19.582 4.11667 20 3.69313 20 3.16667C20 2.64021 19.582 2.21667 19.0625 2.21667H10.4805Z" fill="#797979"/>
</svg>
