<svg xmlns="http://www.w3.org/2000/svg" xmlns:xlink="http://www.w3.org/1999/xlink" width="143.691" height="143.691" viewBox="0 0 143.691 143.691"><defs><style>.a{fill:#dddedf;}.b{clip-path:url(#a);}.c{fill:#fff;}</style><clipPath id="a"><path class="a" d="M143.691,71.846a71.84,71.84,0,0,1-71.846,71.846,70.423,70.423,0,0,1-8.812-.533,22.964,22.964,0,0,0,2.75-5.276l5.894-16.193,10.047-3.648A15.746,15.746,0,0,0,92.052,102.3a17.975,17.975,0,0,0-11-15.6L46.643,72.211a4.5,4.5,0,0,0-3.508,8.279l23.125,9.738-25.848,9.4v-.842a15.716,15.716,0,1,0-31.432,0v7.858a71.849,71.849,0,1,1,134.71-34.8Zm-85.2-22.452a8.981,8.981,0,1,0-8.981,8.981A8.971,8.971,0,0,0,58.487,49.394ZM94.409,62.865a8.981,8.981,0,1,0-8.981-8.981A8.971,8.971,0,0,0,94.409,62.865ZM40.132,34.211a17.968,17.968,0,0,1,20.6,1.965l3.7,3.171a4.5,4.5,0,1,0,5.866-6.82l-3.7-3.171A26.959,26.959,0,0,0,35.67,26.409l-1.993,1.123a4.487,4.487,0,0,0,4.434,7.8L40.1,34.211Zm-8.7,64.577v13.639l42.6-15.492a6.747,6.747,0,0,1,4.6,12.685L64.661,114.7l-7.325,20.122a13.453,13.453,0,0,1-12.657,8.868H31.432A13.475,13.475,0,0,1,17.961,130.22V98.788a6.736,6.736,0,1,1,13.471,0Z" transform="translate(-8547.098 11264.14)"/></clipPath></defs><g class="b" transform="translate(8547.098 -11264.14)"><g transform="translate(-8523.025 11277.75)"><rect class="c" width="765.366" height="340.961" rx="10" transform="translate(0)"/><path class="c" d="M18.577,111.791a1.428,1.428,0,0,1-2.02,2.02l-7.033-7.086-7.083,7.083a1.429,1.429,0,0,1-2.02-2.02l7.086-7.081L.419,97.571a1.428,1.428,0,0,1,2.02-2.02l7.085,7.139,7.083-7.083a1.428,1.428,0,0,1,2.02,2.02l-7.086,7.081Z" transform="translate(711.879 -66.66)"/></g></g></svg>