<svg width="11" height="15" viewBox="0 0 11 15" fill="none" xmlns="http://www.w3.org/2000/svg">
<path d="M4.82109 14.625C3.35156 12.7441 0 8.18555 0 5.625C0 2.51953 2.46354 0 5.5 0C8.53646 0 11 2.51953 11 5.625C11 8.18555 7.64844 12.7441 6.17891 14.625C5.82656 15.0732 5.17344 15.0732 4.82109 14.625ZM5.5 3.75C5.01377 3.75 4.54745 3.94754 4.20364 4.29917C3.85982 4.6508 3.66667 5.12772 3.66667 5.625C3.66667 6.12228 3.85982 6.59919 4.20364 6.95082C4.54745 7.30246 5.01377 7.5 5.5 7.5C5.98623 7.5 6.45255 7.30246 6.79636 6.95082C7.14018 6.59919 7.33333 6.12228 7.33333 5.625C7.33333 5.12772 7.14018 4.6508 6.79636 4.29917C6.45255 3.94754 5.98623 3.75 5.5 3.75Z" fill="#8D2A4F"/>
</svg>
