<svg xmlns="http://www.w3.org/2000/svg" width="68.723" height="68.723" viewBox="0 0 68.723 68.723"><defs><style>.a{fill:#8e2a4f;}</style></defs><path class="a" d="M34.361,68.723A34.361,34.361,0,1,0,0,34.361,34.361,34.361,0,0,0,34.361,68.723ZM21.382,52.173A2.144,2.144,0,1,1,17.288,50.9,17.743,17.743,0,0,1,34.361,38.656,17.767,17.767,0,0,1,51.448,50.911a2.144,2.144,0,0,1-4.094,1.275,13.5,13.5,0,0,0-12.993-9.235A13.475,13.475,0,0,0,21.382,52.173Zm-2-24.254a4.3,4.3,0,1,1,4.3,4.3A4.3,4.3,0,0,1,19.382,27.919Zm25.771-4.3a4.3,4.3,0,1,1-4.3,4.3A4.3,4.3,0,0,1,45.153,23.623Z"/></svg>