<svg xmlns="http://www.w3.org/2000/svg" width="68.721" height="68.722" viewBox="0 0 68.721 68.722"><defs><style>.a{fill:#93d352;}</style></defs><path class="a" d="M34.361,68.722A34.361,34.361,0,1,0,0,34.361,34.358,34.358,0,0,0,34.361,68.722ZM13.637,42.146a2.845,2.845,0,0,1,2.913-3.49H52.172a2.845,2.845,0,0,1,2.913,3.49,21.477,21.477,0,0,1-41.448,0Zm15.57-13.583h0l-.027-.027a1.3,1.3,0,0,1-.094-.121c-.081-.107-.215-.268-.376-.456a16.227,16.227,0,0,0-1.369-1.382A6.288,6.288,0,0,0,23.623,24.7a6.288,6.288,0,0,0-3.718,1.879,16.227,16.227,0,0,0-1.369,1.382c-.161.188-.3.349-.376.456-.04.054-.081.094-.094.121l-.027.027h0a1.063,1.063,0,0,1-1.195.376,1.085,1.085,0,0,1-.738-1.02,11.19,11.19,0,0,1,2.228-6.55,6.986,6.986,0,0,1,5.288-3.114,6.986,6.986,0,0,1,5.288,3.114,11.19,11.19,0,0,1,2.228,6.55,1.08,1.08,0,0,1-.738,1.02,1.051,1.051,0,0,1-1.195-.376h0Zm21.475,0h0l-.027-.027a1.3,1.3,0,0,1-.094-.121c-.081-.107-.215-.268-.376-.456a16.227,16.227,0,0,0-1.369-1.382A6.288,6.288,0,0,0,45.1,24.7a6.288,6.288,0,0,0-3.718,1.879,16.227,16.227,0,0,0-1.369,1.382c-.161.188-.3.349-.376.456-.04.054-.081.094-.094.121l-.027.027h0a1.063,1.063,0,0,1-1.195.376,1.085,1.085,0,0,1-.738-1.02,11.19,11.19,0,0,1,2.228-6.55A6.986,6.986,0,0,1,45.1,18.254a6.986,6.986,0,0,1,5.288,3.114,11.19,11.19,0,0,1,2.228,6.55,1.08,1.08,0,0,1-.738,1.02,1.051,1.051,0,0,1-1.195-.376h0Z"/></svg>