<svg xmlns="http://www.w3.org/2000/svg" width="297" height="9.135" viewBox="0 0 297 9.135"><defs><style>.a{fill:#93d352;}</style></defs><path class="a" d="M47.882,6.191c8.063,0,16.125.111,24.023,0,22.213-.223,44.591-.557,66.8-.78C150.557,5.3,162.4,5.077,174.086,5.3c19.91.223,39.984.78,59.894,1.226,11.847.223,23.859.669,35.706,1a49.574,49.574,0,0,0,10.7-.446c-.329.334-.658.892-1.152,1a33.419,33.419,0,0,1-6.746,1c-6.746.111-13.657,0-20.4-.111-13-.223-26-.78-39-1-19.58-.334-39.161-.78-58.742-.78-20.732,0-41.794.557-62.691.669C74.373,7.974,57.1,7.752,39.819,7.64c-7.9-.111-15.632-.334-23.365-.557-3.291-.111-6.417-.446-9.543-.669a12.1,12.1,0,0,1-1.975-.446c1.81-1,4.278.223,5.43-1.226,1.316.892,2.8.892,4.443.892C21.061,5.411,27.15,5.3,33.4,5.077c18.429-.892,37.022-1.672,55.451-2.563a9.106,9.106,0,0,0,2.962-.446H69.273c-7.9.111-15.632.334-23.53.446-7.733.111-15.3.111-23.036.334-7.569.111-15.138.446-22.542.223A1.018,1.018,0,0,1,0,2.4c.658-.111,1.152-.223,1.81-.334C26,1.622,50.185,1.065,74.373.731,95.764.4,117.319.062,138.71.062,158.784-.05,178.858-.05,199.1.4c19.58.334,39.161,1,58.742,1.672,11.847.446,23.859,1,35.706,1.56A9.514,9.514,0,0,1,297,4.3c-3.291.111-6.746.334-10.037.223C265.9,4.3,244.84,3.851,223.778,3.628c-29.124-.223-58.248-1-87.372-.223-15.3.334-30.77.334-46.072.78C76.183,4.52,62.2,5.077,48.047,5.634A.741.741,0,0,1,47.882,6.191ZM95.764,1.845v.223h18.429V1.845Z"/></svg>