<svg xmlns="http://www.w3.org/2000/svg" width="68.721" height="68.722" viewBox="0 0 68.721 68.722"><defs><style>.a{fill:#d8d8d8;}</style></defs><path class="a" d="M68.721,34.361A34.358,34.358,0,0,1,34.361,68.722a33.681,33.681,0,0,1-4.215-.255,10.983,10.983,0,0,0,1.315-2.523L34.28,58.2l4.805-1.745a7.531,7.531,0,0,0,4.939-7.53,8.6,8.6,0,0,0-5.261-7.463L22.308,34.535a2.15,2.15,0,0,0-1.678,3.96l11.06,4.658-12.362,4.5v-.4a7.516,7.516,0,1,0-15.033,0V51A34.363,34.363,0,1,1,68.721,34.361ZM27.972,23.623a4.3,4.3,0,1,0-4.3,4.3A4.29,4.29,0,0,0,27.972,23.623Zm17.18,6.443a4.3,4.3,0,1,0-4.3-4.3A4.29,4.29,0,0,0,45.152,30.066Zm-25.958-13.7a8.594,8.594,0,0,1,9.852.94l1.772,1.517a2.151,2.151,0,1,0,2.805-3.262L31.851,14.04A12.893,12.893,0,0,0,17.06,12.63l-.953.537A2.146,2.146,0,0,0,18.227,16.9l.953-.537ZM15.033,47.246v6.523L35.408,46.36a3.227,3.227,0,0,1,2.2,6.067l-6.684,2.429-3.5,9.624a6.434,6.434,0,0,1-6.053,4.241H15.033A6.444,6.444,0,0,1,8.59,62.279V47.246a3.221,3.221,0,1,1,6.443,0Z"/></svg>